<mxfile host="drawio-plugin" agent="Mozilla/5.0 (X11; Linux x86_64) AppleWebKit/537.36 (KHTML, like Gecko) Chrome/122.0.0.0 Safari/537.36" modified="2025-10-04T18:42:21.155Z" version="22.1.22" etag="xF_JnXfXcy4lRTQAi2u4" type="embed">
  <diagram name="Seite-1" id="tv3RCUC1lsHie5otSo7a">
    <mxGraphModel dx="872" dy="800" grid="1" gridSize="10" guides="1" tooltips="1" connect="1" arrows="1" fold="1" page="1" pageScale="1" pageWidth="827" pageHeight="1169" math="0" shadow="0">
      <root>
        <mxCell id="0" />
        <mxCell id="1" parent="0" />
        <mxCell id="zjGeTOThquZhaolVEsW3-189" value="&amp;lt;&amp;lt;interface&amp;gt;&amp;gt;&lt;br&gt;&lt;b&gt;AccountExecutor&lt;/b&gt;&lt;div&gt;&lt;br/&gt;&lt;/div&gt;" style="swimlane;fontStyle=0;align=center;verticalAlign=top;childLayout=stackLayout;horizontal=1;startSize=40;horizontalStack=0;resizeParent=1;resizeParentMax=0;resizeLast=0;collapsible=0;marginBottom=0;html=1;whiteSpace=wrap;" parent="1" vertex="1">
          <mxGeometry x="411" y="110" width="406" height="170" as="geometry" />
        </mxCell>
        <mxCell id="zjGeTOThquZhaolVEsW3-190" value="" style="line;strokeWidth=1;fillColor=none;align=left;verticalAlign=middle;spacingTop=-1;spacingLeft=3;spacingRight=3;rotatable=0;labelPosition=right;points=[];portConstraint=eastwest;" parent="zjGeTOThquZhaolVEsW3-189" vertex="1">
          <mxGeometry y="40" width="406" height="8" as="geometry" />
        </mxCell>
        <mxCell id="zjGeTOThquZhaolVEsW3-191" value="&lt;div&gt;createAccount(CreateAccountRequest), boolean,&amp;nbsp;&lt;/div&gt;&lt;div&gt;&lt;span style=&quot;white-space: pre;&quot;&gt;&#x9;&lt;/span&gt;boolean): AccountResponse&lt;/div&gt;" style="text;html=1;strokeColor=none;fillColor=none;align=left;verticalAlign=middle;spacingLeft=4;spacingRight=4;overflow=hidden;rotatable=0;points=[[0,0.5],[1,0.5]];portConstraint=eastwest;whiteSpace=wrap;" parent="zjGeTOThquZhaolVEsW3-189" vertex="1">
          <mxGeometry y="48" width="406" height="42" as="geometry" />
        </mxCell>
        <mxCell id="zjGeTOThquZhaolVEsW3-192" value="&lt;div&gt;getAccountsPartial(AccountSortParameter, SortDirectionParameter,&amp;nbsp;&lt;/div&gt;&lt;div&gt;&lt;span style=&quot;white-space: pre;&quot;&gt;&#x9;&lt;/span&gt;UUID, String): List&amp;lt;PartialAccountResponse&amp;gt;&lt;/div&gt;" style="text;html=1;strokeColor=none;fillColor=none;align=left;verticalAlign=middle;spacingLeft=4;spacingRight=4;overflow=hidden;rotatable=0;points=[[0,0.5],[1,0.5]];portConstraint=eastwest;whiteSpace=wrap;" parent="zjGeTOThquZhaolVEsW3-189" vertex="1">
          <mxGeometry y="90" width="406" height="40" as="geometry" />
        </mxCell>
        <mxCell id="zjGeTOThquZhaolVEsW3-193" value="&lt;div&gt;getAccountsFull(AccountSortParameter, SortDirectionParameter,&amp;nbsp;&lt;/div&gt;&lt;div&gt;UUID, Set&amp;lt;AccountState&amp;gt;, String): List&amp;lt;PartialAccountResponse&amp;gt;&lt;/div&gt;" style="text;html=1;strokeColor=none;fillColor=none;align=left;verticalAlign=middle;spacingLeft=4;spacingRight=4;overflow=hidden;rotatable=0;points=[[0,0.5],[1,0.5]];portConstraint=eastwest;whiteSpace=wrap;" parent="zjGeTOThquZhaolVEsW3-189" vertex="1">
          <mxGeometry y="130" width="406" height="40" as="geometry" />
        </mxCell>
        <mxCell id="zjGeTOThquZhaolVEsW3-194" value="&amp;lt;&amp;lt;interface&amp;gt;&amp;gt;&lt;br&gt;&lt;b&gt;AdminPanelExecutor&lt;/b&gt;&lt;div&gt;&lt;br&gt;&lt;/div&gt;" style="swimlane;fontStyle=0;align=center;verticalAlign=top;childLayout=stackLayout;horizontal=1;startSize=40;horizontalStack=0;resizeParent=1;resizeParentMax=0;resizeLast=0;collapsible=0;marginBottom=0;html=1;whiteSpace=wrap;" parent="1" vertex="1">
          <mxGeometry x="411" width="150" height="88" as="geometry" />
        </mxCell>
        <mxCell id="zjGeTOThquZhaolVEsW3-195" value="" style="line;strokeWidth=1;fillColor=none;align=left;verticalAlign=middle;spacingTop=-1;spacingLeft=3;spacingRight=3;rotatable=0;labelPosition=right;points=[];portConstraint=eastwest;" parent="zjGeTOThquZhaolVEsW3-194" vertex="1">
          <mxGeometry y="40" width="150" height="8" as="geometry" />
        </mxCell>
        <mxCell id="zjGeTOThquZhaolVEsW3-196" value="shutdown()" style="text;html=1;strokeColor=none;fillColor=none;align=left;verticalAlign=middle;spacingLeft=4;spacingRight=4;overflow=hidden;rotatable=0;points=[[0,0.5],[1,0.5]];portConstraint=eastwest;whiteSpace=wrap;" parent="zjGeTOThquZhaolVEsW3-194" vertex="1">
          <mxGeometry y="48" width="150" height="20" as="geometry" />
        </mxCell>
        <mxCell id="zjGeTOThquZhaolVEsW3-197" value="restart()" style="text;html=1;strokeColor=none;fillColor=none;align=left;verticalAlign=middle;spacingLeft=4;spacingRight=4;overflow=hidden;rotatable=0;points=[[0,0.5],[1,0.5]];portConstraint=eastwest;whiteSpace=wrap;" parent="zjGeTOThquZhaolVEsW3-194" vertex="1">
          <mxGeometry y="68" width="150" height="20" as="geometry" />
        </mxCell>
        <mxCell id="zjGeTOThquZhaolVEsW3-198" value="&amp;lt;&amp;lt;interface&amp;gt;&amp;gt;&lt;br&gt;&lt;b&gt;PersonalExecutor&lt;/b&gt;&lt;div&gt;&lt;br&gt;&lt;/div&gt;" style="swimlane;fontStyle=0;align=center;verticalAlign=top;childLayout=stackLayout;horizontal=1;startSize=40;horizontalStack=0;resizeParent=1;resizeParentMax=0;resizeLast=0;collapsible=0;marginBottom=0;html=1;whiteSpace=wrap;" parent="1" vertex="1">
          <mxGeometry x="411" y="300" width="410" height="148" as="geometry" />
        </mxCell>
        <mxCell id="zjGeTOThquZhaolVEsW3-199" value="" style="line;strokeWidth=1;fillColor=none;align=left;verticalAlign=middle;spacingTop=-1;spacingLeft=3;spacingRight=3;rotatable=0;labelPosition=right;points=[];portConstraint=eastwest;" parent="zjGeTOThquZhaolVEsW3-198" vertex="1">
          <mxGeometry y="40" width="410" height="8" as="geometry" />
        </mxCell>
        <mxCell id="zjGeTOThquZhaolVEsW3-200" value="submitEmailVerification(SubmitEmailVerificationRequest)" style="text;html=1;strokeColor=none;fillColor=none;align=left;verticalAlign=middle;spacingLeft=4;spacingRight=4;overflow=hidden;rotatable=0;points=[[0,0.5],[1,0.5]];portConstraint=eastwest;whiteSpace=wrap;" parent="zjGeTOThquZhaolVEsW3-198" vertex="1">
          <mxGeometry y="48" width="410" height="20" as="geometry" />
        </mxCell>
        <mxCell id="zjGeTOThquZhaolVEsW3-201" value="signup(CreateAccountRequest, boolean): AccountWithTokensResponse" style="text;html=1;strokeColor=none;fillColor=none;align=left;verticalAlign=middle;spacingLeft=4;spacingRight=4;overflow=hidden;rotatable=0;points=[[0,0.5],[1,0.5]];portConstraint=eastwest;whiteSpace=wrap;" parent="zjGeTOThquZhaolVEsW3-198" vertex="1">
          <mxGeometry y="68" width="410" height="20" as="geometry" />
        </mxCell>
        <mxCell id="zjGeTOThquZhaolVEsW3-202" value="refresh(RefreshRequest): AccountWithTokensResponse" style="text;html=1;strokeColor=none;fillColor=none;align=left;verticalAlign=middle;spacingLeft=4;spacingRight=4;overflow=hidden;rotatable=0;points=[[0,0.5],[1,0.5]];portConstraint=eastwest;whiteSpace=wrap;" parent="zjGeTOThquZhaolVEsW3-198" vertex="1">
          <mxGeometry y="88" width="410" height="20" as="geometry" />
        </mxCell>
        <mxCell id="zjGeTOThquZhaolVEsW3-203" value="login(CredentialsReuqest): AccountWithTokensResponse" style="text;html=1;strokeColor=none;fillColor=none;align=left;verticalAlign=middle;spacingLeft=4;spacingRight=4;overflow=hidden;rotatable=0;points=[[0,0.5],[1,0.5]];portConstraint=eastwest;whiteSpace=wrap;" parent="zjGeTOThquZhaolVEsW3-198" vertex="1">
          <mxGeometry y="108" width="410" height="20" as="geometry" />
        </mxCell>
        <mxCell id="zjGeTOThquZhaolVEsW3-204" value="requestEmailVerification(boolean)" style="text;html=1;strokeColor=none;fillColor=none;align=left;verticalAlign=middle;spacingLeft=4;spacingRight=4;overflow=hidden;rotatable=0;points=[[0,0.5],[1,0.5]];portConstraint=eastwest;whiteSpace=wrap;" parent="zjGeTOThquZhaolVEsW3-198" vertex="1">
          <mxGeometry y="128" width="410" height="20" as="geometry" />
        </mxCell>
        <mxCell id="zjGeTOThquZhaolVEsW3-205" value="&amp;lt;&amp;lt;interface&amp;gt;&amp;gt;&lt;br&gt;&lt;b&gt;ReplicExecutor&lt;/b&gt;&lt;div&gt;&lt;br&gt;&lt;/div&gt;" style="swimlane;fontStyle=0;align=center;verticalAlign=top;childLayout=stackLayout;horizontal=1;startSize=40;horizontalStack=0;resizeParent=1;resizeParentMax=0;resizeLast=0;collapsible=0;marginBottom=0;html=1;whiteSpace=wrap;" parent="1" vertex="1">
          <mxGeometry x="411" y="600" width="381" height="140" as="geometry" />
        </mxCell>
        <mxCell id="zjGeTOThquZhaolVEsW3-206" value="" style="line;strokeWidth=1;fillColor=none;align=left;verticalAlign=middle;spacingTop=-1;spacingLeft=3;spacingRight=3;rotatable=0;labelPosition=right;points=[];portConstraint=eastwest;" parent="zjGeTOThquZhaolVEsW3-205" vertex="1">
          <mxGeometry y="40" width="381" height="8" as="geometry" />
        </mxCell>
        <mxCell id="zjGeTOThquZhaolVEsW3-207" value="&lt;div&gt;getReplics(ReplicSortParameter, SortDirectionParameter,&amp;nbsp;&lt;/div&gt;&lt;div&gt;&lt;span style=&quot;white-space: pre;&quot;&gt;&#x9;&lt;/span&gt;UUID, UUID, Set&amp;lt;ReplicState&amp;gt;, String): List&amp;lt;ReplicResponse&amp;gt;&lt;/div&gt;" style="text;html=1;strokeColor=none;fillColor=none;align=left;verticalAlign=middle;spacingLeft=4;spacingRight=4;overflow=hidden;rotatable=0;points=[[0,0.5],[1,0.5]];portConstraint=eastwest;whiteSpace=wrap;" parent="zjGeTOThquZhaolVEsW3-205" vertex="1">
          <mxGeometry y="48" width="381" height="32" as="geometry" />
        </mxCell>
        <mxCell id="zjGeTOThquZhaolVEsW3-208" value="createReplic(CreateReplicRequest): ReplicResponse" style="text;html=1;strokeColor=none;fillColor=none;align=left;verticalAlign=middle;spacingLeft=4;spacingRight=4;overflow=hidden;rotatable=0;points=[[0,0.5],[1,0.5]];portConstraint=eastwest;whiteSpace=wrap;" parent="zjGeTOThquZhaolVEsW3-205" vertex="1">
          <mxGeometry y="80" width="381" height="20" as="geometry" />
        </mxCell>
        <mxCell id="zjGeTOThquZhaolVEsW3-209" value="getReplicContent(UUID, String): String" style="text;html=1;strokeColor=none;fillColor=none;align=left;verticalAlign=middle;spacingLeft=4;spacingRight=4;overflow=hidden;rotatable=0;points=[[0,0.5],[1,0.5]];portConstraint=eastwest;whiteSpace=wrap;" parent="zjGeTOThquZhaolVEsW3-205" vertex="1">
          <mxGeometry y="100" width="381" height="20" as="geometry" />
        </mxCell>
        <mxCell id="2" value="updateReplicState(Replic, ReplicState)" style="text;html=1;strokeColor=none;fillColor=none;align=left;verticalAlign=middle;spacingLeft=4;spacingRight=4;overflow=hidden;rotatable=0;points=[[0,0.5],[1,0.5]];portConstraint=eastwest;whiteSpace=wrap;" vertex="1" parent="zjGeTOThquZhaolVEsW3-205">
          <mxGeometry y="120" width="381" height="20" as="geometry" />
        </mxCell>
        <mxCell id="zjGeTOThquZhaolVEsW3-210" value="&amp;lt;&amp;lt;interface&amp;gt;&amp;gt;&lt;br&gt;&lt;b&gt;ReportExecutor&lt;/b&gt;&lt;div&gt;&lt;br&gt;&lt;/div&gt;" style="swimlane;fontStyle=0;align=center;verticalAlign=top;childLayout=stackLayout;horizontal=1;startSize=40;horizontalStack=0;resizeParent=1;resizeParentMax=0;resizeLast=0;collapsible=0;marginBottom=0;html=1;whiteSpace=wrap;" parent="1" vertex="1">
          <mxGeometry x="411" y="770" width="351" height="120" as="geometry" />
        </mxCell>
        <mxCell id="zjGeTOThquZhaolVEsW3-211" value="" style="line;strokeWidth=1;fillColor=none;align=left;verticalAlign=middle;spacingTop=-1;spacingLeft=3;spacingRight=3;rotatable=0;labelPosition=right;points=[];portConstraint=eastwest;" parent="zjGeTOThquZhaolVEsW3-210" vertex="1">
          <mxGeometry y="40" width="351" height="8" as="geometry" />
        </mxCell>
        <mxCell id="zjGeTOThquZhaolVEsW3-212" value="&lt;div&gt;getReports(ReportSortParameter, SortDirectionParameter,&amp;nbsp;&lt;/div&gt;&lt;div&gt;UUID, String): List&amp;lt;ReportResponse&amp;gt;&lt;/div&gt;" style="text;html=1;strokeColor=none;fillColor=none;align=left;verticalAlign=middle;spacingLeft=4;spacingRight=4;overflow=hidden;rotatable=0;points=[[0,0.5],[1,0.5]];portConstraint=eastwest;whiteSpace=wrap;" parent="zjGeTOThquZhaolVEsW3-210" vertex="1">
          <mxGeometry y="48" width="351" height="32" as="geometry" />
        </mxCell>
        <mxCell id="zjGeTOThquZhaolVEsW3-213" value="createReport(CreateReportRequest, UUID): ReportResponse" style="text;html=1;strokeColor=none;fillColor=none;align=left;verticalAlign=middle;spacingLeft=4;spacingRight=4;overflow=hidden;rotatable=0;points=[[0,0.5],[1,0.5]];portConstraint=eastwest;whiteSpace=wrap;" parent="zjGeTOThquZhaolVEsW3-210" vertex="1">
          <mxGeometry y="80" width="351" height="20" as="geometry" />
        </mxCell>
        <mxCell id="zjGeTOThquZhaolVEsW3-214" value="updateReport(UUID, ReportState): ReportResponse" style="text;html=1;strokeColor=none;fillColor=none;align=left;verticalAlign=middle;spacingLeft=4;spacingRight=4;overflow=hidden;rotatable=0;points=[[0,0.5],[1,0.5]];portConstraint=eastwest;whiteSpace=wrap;" parent="zjGeTOThquZhaolVEsW3-210" vertex="1">
          <mxGeometry y="100" width="351" height="20" as="geometry" />
        </mxCell>
        <mxCell id="zjGeTOThquZhaolVEsW3-215" value="&amp;lt;&amp;lt;interface&amp;gt;&amp;gt;&lt;br&gt;&lt;b&gt;ServerConfigExecutor&lt;/b&gt;&lt;div&gt;&lt;br&gt;&lt;/div&gt;" style="swimlane;fontStyle=0;align=center;verticalAlign=top;childLayout=stackLayout;horizontal=1;startSize=40;horizontalStack=0;resizeParent=1;resizeParentMax=0;resizeLast=0;collapsible=0;marginBottom=0;html=1;whiteSpace=wrap;" parent="1" vertex="1">
          <mxGeometry x="411" y="880" width="320" height="88" as="geometry" />
        </mxCell>
        <mxCell id="zjGeTOThquZhaolVEsW3-216" value="" style="line;strokeWidth=1;fillColor=none;align=left;verticalAlign=middle;spacingTop=-1;spacingLeft=3;spacingRight=3;rotatable=0;labelPosition=right;points=[];portConstraint=eastwest;" parent="zjGeTOThquZhaolVEsW3-215" vertex="1">
          <mxGeometry y="40" width="320" height="8" as="geometry" />
        </mxCell>
        <mxCell id="zjGeTOThquZhaolVEsW3-217" value="getServerConfig(): ServerConfigDto" style="text;html=1;strokeColor=none;fillColor=none;align=left;verticalAlign=middle;spacingLeft=4;spacingRight=4;overflow=hidden;rotatable=0;points=[[0,0.5],[1,0.5]];portConstraint=eastwest;whiteSpace=wrap;" parent="zjGeTOThquZhaolVEsW3-215" vertex="1">
          <mxGeometry y="48" width="320" height="20" as="geometry" />
        </mxCell>
        <mxCell id="zjGeTOThquZhaolVEsW3-218" value="setServerConfig(ServerConfigDto): ServerConfigDto" style="text;html=1;strokeColor=none;fillColor=none;align=left;verticalAlign=middle;spacingLeft=4;spacingRight=4;overflow=hidden;rotatable=0;points=[[0,0.5],[1,0.5]];portConstraint=eastwest;whiteSpace=wrap;" parent="zjGeTOThquZhaolVEsW3-215" vertex="1">
          <mxGeometry y="68" width="320" height="20" as="geometry" />
        </mxCell>
        <mxCell id="zjGeTOThquZhaolVEsW3-219" value="&amp;lt;&amp;lt;interface&amp;gt;&amp;gt;&lt;br&gt;&lt;b&gt;AuthenticationExecutor&lt;/b&gt;&lt;div&gt;&lt;br&gt;&lt;/div&gt;" style="swimlane;fontStyle=0;align=center;verticalAlign=top;childLayout=stackLayout;horizontal=1;startSize=40;horizontalStack=0;resizeParent=1;resizeParentMax=0;resizeLast=0;collapsible=0;marginBottom=0;html=1;whiteSpace=wrap;" parent="1" vertex="1">
          <mxGeometry x="411" y="470" width="410" height="108" as="geometry" />
        </mxCell>
        <mxCell id="zjGeTOThquZhaolVEsW3-220" value="" style="line;strokeWidth=1;fillColor=none;align=left;verticalAlign=middle;spacingTop=-1;spacingLeft=3;spacingRight=3;rotatable=0;labelPosition=right;points=[];portConstraint=eastwest;" parent="zjGeTOThquZhaolVEsW3-219" vertex="1">
          <mxGeometry y="40" width="410" height="8" as="geometry" />
        </mxCell>
        <mxCell id="zjGeTOThquZhaolVEsW3-221" value="getMe(): AccountResponse" style="text;html=1;strokeColor=none;fillColor=none;align=left;verticalAlign=middle;spacingLeft=4;spacingRight=4;overflow=hidden;rotatable=0;points=[[0,0.5],[1,0.5]];portConstraint=eastwest;whiteSpace=wrap;" parent="zjGeTOThquZhaolVEsW3-219" vertex="1">
          <mxGeometry y="48" width="410" height="20" as="geometry" />
        </mxCell>
        <mxCell id="zjGeTOThquZhaolVEsW3-222" value="updateMe(UpdateAccountRequest): AccountResponse" style="text;html=1;strokeColor=none;fillColor=none;align=left;verticalAlign=middle;spacingLeft=4;spacingRight=4;overflow=hidden;rotatable=0;points=[[0,0.5],[1,0.5]];portConstraint=eastwest;whiteSpace=wrap;" parent="zjGeTOThquZhaolVEsW3-219" vertex="1">
          <mxGeometry y="68" width="410" height="20" as="geometry" />
        </mxCell>
        <mxCell id="zjGeTOThquZhaolVEsW3-223" value="getQuotaProgress(): QuotaProgressResponse" style="text;html=1;strokeColor=none;fillColor=none;align=left;verticalAlign=middle;spacingLeft=4;spacingRight=4;overflow=hidden;rotatable=0;points=[[0,0.5],[1,0.5]];portConstraint=eastwest;whiteSpace=wrap;" parent="zjGeTOThquZhaolVEsW3-219" vertex="1">
          <mxGeometry y="88" width="410" height="20" as="geometry" />
        </mxCell>
        <mxCell id="zjGeTOThquZhaolVEsW3-250" style="edgeStyle=orthogonalEdgeStyle;rounded=0;orthogonalLoop=1;jettySize=auto;html=1;endArrow=block;endFill=0;" parent="1" source="zjGeTOThquZhaolVEsW3-224" target="zjGeTOThquZhaolVEsW3-194" edge="1">
          <mxGeometry relative="1" as="geometry" />
        </mxCell>
        <mxCell id="zjGeTOThquZhaolVEsW3-270" style="edgeStyle=orthogonalEdgeStyle;rounded=0;orthogonalLoop=1;jettySize=auto;html=1;endArrow=block;endFill=0;" parent="1" source="zjGeTOThquZhaolVEsW3-224" target="zjGeTOThquZhaolVEsW3-240" edge="1">
          <mxGeometry relative="1" as="geometry">
            <Array as="points">
              <mxPoint x="90" y="44" />
            </Array>
          </mxGeometry>
        </mxCell>
        <mxCell id="zjGeTOThquZhaolVEsW3-224" value="&lt;b&gt;AdminPanelExecutorImpl&lt;/b&gt;" style="swimlane;fontStyle=0;align=center;verticalAlign=top;childLayout=stackLayout;horizontal=1;startSize=30;horizontalStack=0;resizeParent=1;resizeParentMax=0;resizeLast=0;collapsible=0;marginBottom=0;html=1;whiteSpace=wrap;" parent="1" vertex="1">
          <mxGeometry x="157" y="25" width="160" height="38" as="geometry" />
        </mxCell>
        <mxCell id="zjGeTOThquZhaolVEsW3-225" value="" style="line;strokeWidth=1;fillColor=none;align=left;verticalAlign=middle;spacingTop=-1;spacingLeft=3;spacingRight=3;rotatable=0;labelPosition=right;points=[];portConstraint=eastwest;" parent="zjGeTOThquZhaolVEsW3-224" vertex="1">
          <mxGeometry y="30" width="160" height="8" as="geometry" />
        </mxCell>
        <mxCell id="zjGeTOThquZhaolVEsW3-249" style="edgeStyle=orthogonalEdgeStyle;rounded=0;orthogonalLoop=1;jettySize=auto;html=1;endArrow=block;endFill=0;" parent="1" source="zjGeTOThquZhaolVEsW3-228" target="zjGeTOThquZhaolVEsW3-240" edge="1">
          <mxGeometry relative="1" as="geometry">
            <Array as="points">
              <mxPoint x="90" y="195" />
            </Array>
          </mxGeometry>
        </mxCell>
        <mxCell id="zjGeTOThquZhaolVEsW3-252" style="edgeStyle=orthogonalEdgeStyle;rounded=0;orthogonalLoop=1;jettySize=auto;html=1;endArrow=block;endFill=0;" parent="1" source="zjGeTOThquZhaolVEsW3-228" target="zjGeTOThquZhaolVEsW3-189" edge="1">
          <mxGeometry relative="1" as="geometry" />
        </mxCell>
        <mxCell id="zjGeTOThquZhaolVEsW3-228" value="&lt;b&gt;AccountExecutorImpl&lt;/b&gt;" style="swimlane;fontStyle=0;align=center;verticalAlign=top;childLayout=stackLayout;horizontal=1;startSize=30;horizontalStack=0;resizeParent=1;resizeParentMax=0;resizeLast=0;collapsible=0;marginBottom=0;html=1;whiteSpace=wrap;" parent="1" vertex="1">
          <mxGeometry x="157" y="176" width="150" height="38" as="geometry" />
        </mxCell>
        <mxCell id="zjGeTOThquZhaolVEsW3-229" value="" style="line;strokeWidth=1;fillColor=none;align=left;verticalAlign=middle;spacingTop=-1;spacingLeft=3;spacingRight=3;rotatable=0;labelPosition=right;points=[];portConstraint=eastwest;" parent="zjGeTOThquZhaolVEsW3-228" vertex="1">
          <mxGeometry y="30" width="150" height="8" as="geometry" />
        </mxCell>
        <mxCell id="zjGeTOThquZhaolVEsW3-248" style="edgeStyle=orthogonalEdgeStyle;rounded=0;orthogonalLoop=1;jettySize=auto;html=1;endArrow=block;endFill=0;" parent="1" source="zjGeTOThquZhaolVEsW3-230" target="zjGeTOThquZhaolVEsW3-240" edge="1">
          <mxGeometry relative="1" as="geometry">
            <Array as="points">
              <mxPoint x="90" y="374" />
            </Array>
          </mxGeometry>
        </mxCell>
        <mxCell id="zjGeTOThquZhaolVEsW3-253" style="edgeStyle=orthogonalEdgeStyle;rounded=0;orthogonalLoop=1;jettySize=auto;html=1;endArrow=block;endFill=0;" parent="1" source="zjGeTOThquZhaolVEsW3-230" target="zjGeTOThquZhaolVEsW3-198" edge="1">
          <mxGeometry relative="1" as="geometry" />
        </mxCell>
        <mxCell id="zjGeTOThquZhaolVEsW3-230" value="&lt;b&gt;PersonalExecutorImpl&lt;/b&gt;" style="swimlane;fontStyle=0;align=center;verticalAlign=top;childLayout=stackLayout;horizontal=1;startSize=30;horizontalStack=0;resizeParent=1;resizeParentMax=0;resizeLast=0;collapsible=0;marginBottom=0;html=1;whiteSpace=wrap;" parent="1" vertex="1">
          <mxGeometry x="157" y="355" width="160" height="38" as="geometry" />
        </mxCell>
        <mxCell id="zjGeTOThquZhaolVEsW3-231" value="" style="line;strokeWidth=1;fillColor=none;align=left;verticalAlign=middle;spacingTop=-1;spacingLeft=3;spacingRight=3;rotatable=0;labelPosition=right;points=[];portConstraint=eastwest;" parent="zjGeTOThquZhaolVEsW3-230" vertex="1">
          <mxGeometry y="30" width="160" height="8" as="geometry" />
        </mxCell>
        <mxCell id="zjGeTOThquZhaolVEsW3-246" style="edgeStyle=orthogonalEdgeStyle;rounded=0;orthogonalLoop=1;jettySize=auto;html=1;endArrow=block;endFill=0;" parent="1" source="zjGeTOThquZhaolVEsW3-232" target="zjGeTOThquZhaolVEsW3-240" edge="1">
          <mxGeometry relative="1" as="geometry">
            <Array as="points">
              <mxPoint x="90" y="524" />
            </Array>
          </mxGeometry>
        </mxCell>
        <mxCell id="zjGeTOThquZhaolVEsW3-254" style="edgeStyle=orthogonalEdgeStyle;rounded=0;orthogonalLoop=1;jettySize=auto;html=1;endArrow=block;endFill=0;" parent="1" source="zjGeTOThquZhaolVEsW3-232" target="zjGeTOThquZhaolVEsW3-219" edge="1">
          <mxGeometry relative="1" as="geometry" />
        </mxCell>
        <mxCell id="zjGeTOThquZhaolVEsW3-232" value="&lt;b&gt;AuthenticationExecutorImpl&lt;/b&gt;" style="swimlane;fontStyle=0;align=center;verticalAlign=top;childLayout=stackLayout;horizontal=1;startSize=30;horizontalStack=0;resizeParent=1;resizeParentMax=0;resizeLast=0;collapsible=0;marginBottom=0;html=1;whiteSpace=wrap;" parent="1" vertex="1">
          <mxGeometry x="157" y="505" width="170" height="38" as="geometry" />
        </mxCell>
        <mxCell id="zjGeTOThquZhaolVEsW3-233" value="" style="line;strokeWidth=1;fillColor=none;align=left;verticalAlign=middle;spacingTop=-1;spacingLeft=3;spacingRight=3;rotatable=0;labelPosition=right;points=[];portConstraint=eastwest;" parent="zjGeTOThquZhaolVEsW3-232" vertex="1">
          <mxGeometry y="30" width="170" height="8" as="geometry" />
        </mxCell>
        <mxCell id="zjGeTOThquZhaolVEsW3-245" style="edgeStyle=orthogonalEdgeStyle;rounded=0;orthogonalLoop=1;jettySize=auto;html=1;endArrow=block;endFill=0;" parent="1" source="zjGeTOThquZhaolVEsW3-234" target="zjGeTOThquZhaolVEsW3-240" edge="1">
          <mxGeometry relative="1" as="geometry">
            <Array as="points">
              <mxPoint x="90" y="670" />
            </Array>
          </mxGeometry>
        </mxCell>
        <mxCell id="zjGeTOThquZhaolVEsW3-255" style="edgeStyle=orthogonalEdgeStyle;rounded=0;orthogonalLoop=1;jettySize=auto;html=1;endArrow=block;endFill=0;" parent="1" source="zjGeTOThquZhaolVEsW3-234" target="zjGeTOThquZhaolVEsW3-205" edge="1">
          <mxGeometry relative="1" as="geometry" />
        </mxCell>
        <mxCell id="zjGeTOThquZhaolVEsW3-234" value="&lt;b&gt;ReplicExecutorImpl&lt;/b&gt;" style="swimlane;fontStyle=0;align=center;verticalAlign=top;childLayout=stackLayout;horizontal=1;startSize=30;horizontalStack=0;resizeParent=1;resizeParentMax=0;resizeLast=0;collapsible=0;marginBottom=0;html=1;whiteSpace=wrap;" parent="1" vertex="1">
          <mxGeometry x="157" y="651" width="170" height="38" as="geometry" />
        </mxCell>
        <mxCell id="zjGeTOThquZhaolVEsW3-235" value="" style="line;strokeWidth=1;fillColor=none;align=left;verticalAlign=middle;spacingTop=-1;spacingLeft=3;spacingRight=3;rotatable=0;labelPosition=right;points=[];portConstraint=eastwest;" parent="zjGeTOThquZhaolVEsW3-234" vertex="1">
          <mxGeometry y="30" width="170" height="8" as="geometry" />
        </mxCell>
        <mxCell id="zjGeTOThquZhaolVEsW3-244" style="edgeStyle=orthogonalEdgeStyle;rounded=0;orthogonalLoop=1;jettySize=auto;html=1;endArrow=block;endFill=0;" parent="1" source="zjGeTOThquZhaolVEsW3-236" target="zjGeTOThquZhaolVEsW3-240" edge="1">
          <mxGeometry relative="1" as="geometry">
            <Array as="points">
              <mxPoint x="90" y="830" />
            </Array>
          </mxGeometry>
        </mxCell>
        <mxCell id="zjGeTOThquZhaolVEsW3-256" style="edgeStyle=orthogonalEdgeStyle;rounded=0;orthogonalLoop=1;jettySize=auto;html=1;endArrow=block;endFill=0;" parent="1" source="zjGeTOThquZhaolVEsW3-236" target="zjGeTOThquZhaolVEsW3-210" edge="1">
          <mxGeometry relative="1" as="geometry" />
        </mxCell>
        <mxCell id="zjGeTOThquZhaolVEsW3-236" value="&lt;b&gt;ReportExecutorImpl&lt;/b&gt;" style="swimlane;fontStyle=0;align=center;verticalAlign=top;childLayout=stackLayout;horizontal=1;startSize=30;horizontalStack=0;resizeParent=1;resizeParentMax=0;resizeLast=0;collapsible=0;marginBottom=0;html=1;whiteSpace=wrap;" parent="1" vertex="1">
          <mxGeometry x="157" y="811" width="170" height="38" as="geometry" />
        </mxCell>
        <mxCell id="zjGeTOThquZhaolVEsW3-237" value="" style="line;strokeWidth=1;fillColor=none;align=left;verticalAlign=middle;spacingTop=-1;spacingLeft=3;spacingRight=3;rotatable=0;labelPosition=right;points=[];portConstraint=eastwest;" parent="zjGeTOThquZhaolVEsW3-236" vertex="1">
          <mxGeometry y="30" width="170" height="8" as="geometry" />
        </mxCell>
        <mxCell id="zjGeTOThquZhaolVEsW3-243" style="edgeStyle=orthogonalEdgeStyle;rounded=0;orthogonalLoop=1;jettySize=auto;html=1;endArrow=block;endFill=0;" parent="1" source="zjGeTOThquZhaolVEsW3-238" target="zjGeTOThquZhaolVEsW3-240" edge="1">
          <mxGeometry relative="1" as="geometry">
            <Array as="points">
              <mxPoint x="90" y="924" />
            </Array>
          </mxGeometry>
        </mxCell>
        <mxCell id="zjGeTOThquZhaolVEsW3-258" style="edgeStyle=orthogonalEdgeStyle;rounded=0;orthogonalLoop=1;jettySize=auto;html=1;endArrow=block;endFill=0;" parent="1" source="zjGeTOThquZhaolVEsW3-238" target="zjGeTOThquZhaolVEsW3-215" edge="1">
          <mxGeometry relative="1" as="geometry" />
        </mxCell>
        <mxCell id="zjGeTOThquZhaolVEsW3-238" value="&lt;b&gt;ServerConfigExecutorImpl&lt;/b&gt;" style="swimlane;fontStyle=0;align=center;verticalAlign=top;childLayout=stackLayout;horizontal=1;startSize=30;horizontalStack=0;resizeParent=1;resizeParentMax=0;resizeLast=0;collapsible=0;marginBottom=0;html=1;whiteSpace=wrap;" parent="1" vertex="1">
          <mxGeometry x="157" y="905" width="170" height="38" as="geometry" />
        </mxCell>
        <mxCell id="zjGeTOThquZhaolVEsW3-239" value="" style="line;strokeWidth=1;fillColor=none;align=left;verticalAlign=middle;spacingTop=-1;spacingLeft=3;spacingRight=3;rotatable=0;labelPosition=right;points=[];portConstraint=eastwest;" parent="zjGeTOThquZhaolVEsW3-238" vertex="1">
          <mxGeometry y="30" width="170" height="8" as="geometry" />
        </mxCell>
        <mxCell id="zjGeTOThquZhaolVEsW3-240" value="&lt;div&gt;&lt;b&gt;AbstractExecutor&lt;/b&gt;&lt;/div&gt;&lt;div&gt;{abstract}&lt;/div&gt;" style="swimlane;fontStyle=0;align=center;verticalAlign=top;childLayout=stackLayout;horizontal=1;startSize=46;horizontalStack=0;resizeParent=1;resizeParentMax=0;resizeLast=0;collapsible=0;marginBottom=0;html=1;whiteSpace=wrap;" parent="1" vertex="1">
          <mxGeometry x="7" y="1000" width="340" height="154" as="geometry" />
        </mxCell>
        <mxCell id="zjGeTOThquZhaolVEsW3-259" value="accountService: AccountService" style="text;html=1;strokeColor=none;fillColor=none;align=left;verticalAlign=middle;spacingLeft=4;spacingRight=4;overflow=hidden;rotatable=0;points=[[0,0.5],[1,0.5]];portConstraint=eastwest;whiteSpace=wrap;" parent="zjGeTOThquZhaolVEsW3-240" vertex="1">
          <mxGeometry y="46" width="340" height="20" as="geometry" />
        </mxCell>
        <mxCell id="zjGeTOThquZhaolVEsW3-260" value="authService: AuthenticationService" style="text;html=1;strokeColor=none;fillColor=none;align=left;verticalAlign=middle;spacingLeft=4;spacingRight=4;overflow=hidden;rotatable=0;points=[[0,0.5],[1,0.5]];portConstraint=eastwest;whiteSpace=wrap;" parent="zjGeTOThquZhaolVEsW3-240" vertex="1">
          <mxGeometry y="66" width="340" height="20" as="geometry" />
        </mxCell>
        <mxCell id="zjGeTOThquZhaolVEsW3-261" value="replicService: ReplicService" style="text;html=1;strokeColor=none;fillColor=none;align=left;verticalAlign=middle;spacingLeft=4;spacingRight=4;overflow=hidden;rotatable=0;points=[[0,0.5],[1,0.5]];portConstraint=eastwest;whiteSpace=wrap;" parent="zjGeTOThquZhaolVEsW3-240" vertex="1">
          <mxGeometry y="86" width="340" height="20" as="geometry" />
        </mxCell>
        <mxCell id="zjGeTOThquZhaolVEsW3-267" value="reportService: ReportService" style="text;html=1;strokeColor=none;fillColor=none;align=left;verticalAlign=middle;spacingLeft=4;spacingRight=4;overflow=hidden;rotatable=0;points=[[0,0.5],[1,0.5]];portConstraint=eastwest;whiteSpace=wrap;" parent="zjGeTOThquZhaolVEsW3-240" vertex="1">
          <mxGeometry y="106" width="340" height="20" as="geometry" />
        </mxCell>
        <mxCell id="zjGeTOThquZhaolVEsW3-269" value="configService: ConfigService" style="text;html=1;strokeColor=none;fillColor=none;align=left;verticalAlign=middle;spacingLeft=4;spacingRight=4;overflow=hidden;rotatable=0;points=[[0,0.5],[1,0.5]];portConstraint=eastwest;whiteSpace=wrap;" parent="zjGeTOThquZhaolVEsW3-240" vertex="1">
          <mxGeometry y="126" width="340" height="20" as="geometry" />
        </mxCell>
        <mxCell id="zjGeTOThquZhaolVEsW3-241" value="" style="line;strokeWidth=1;fillColor=none;align=left;verticalAlign=middle;spacingTop=-1;spacingLeft=3;spacingRight=3;rotatable=0;labelPosition=right;points=[];portConstraint=eastwest;" parent="zjGeTOThquZhaolVEsW3-240" vertex="1">
          <mxGeometry y="146" width="340" height="8" as="geometry" />
        </mxCell>
      </root>
    </mxGraphModel>
  </diagram>
</mxfile>
